<mxfile host="app.diagrams.net" modified="2024-03-11T13:14:56.824Z" agent="Mozilla/5.0 (Windows NT 10.0; Win64; x64) AppleWebKit/537.36 (KHTML, like Gecko) Chrome/122.0.0.0 Safari/537.36" etag="IxS_WAH91jeewoRFoSBs" version="23.1.7" type="device">
  <diagram name="Página-1" id="V_1GEDRzKynThTqL9hy9">
    <mxGraphModel dx="819" dy="446" grid="1" gridSize="10" guides="1" tooltips="1" connect="1" arrows="1" fold="1" page="1" pageScale="1" pageWidth="827" pageHeight="1169" math="0" shadow="0">
      <root>
        <mxCell id="0" />
        <mxCell id="1" parent="0" />
        <mxCell id="B4gv5yCen6VUPcp5jSni-1" value="i = 0, maior = 0, n" style="rounded=1;whiteSpace=wrap;html=1;absoluteArcSize=1;arcSize=14;strokeWidth=2;" vertex="1" parent="1">
          <mxGeometry x="364.5" y="240" width="100" height="40" as="geometry" />
        </mxCell>
        <mxCell id="B4gv5yCen6VUPcp5jSni-2" style="edgeStyle=orthogonalEdgeStyle;rounded=0;orthogonalLoop=1;jettySize=auto;html=1;exitX=0.5;exitY=1;exitDx=0;exitDy=0;exitPerimeter=0;entryX=0.5;entryY=0;entryDx=0;entryDy=0;" edge="1" parent="1" source="B4gv5yCen6VUPcp5jSni-3" target="B4gv5yCen6VUPcp5jSni-1">
          <mxGeometry relative="1" as="geometry" />
        </mxCell>
        <mxCell id="B4gv5yCen6VUPcp5jSni-3" value="Início" style="strokeWidth=2;html=1;shape=mxgraph.flowchart.start_1;whiteSpace=wrap;" vertex="1" parent="1">
          <mxGeometry x="379" y="180" width="70" height="30" as="geometry" />
        </mxCell>
        <mxCell id="B4gv5yCen6VUPcp5jSni-5" value="&lt;h1&gt;Ex09&lt;/h1&gt;&lt;p&gt;Escreva um programa que leia 10 números inteiros e exiba na tela ao final, o maior número que foi digitado pelo usuário&lt;br&gt;&lt;/p&gt;" style="text;html=1;spacing=5;spacingTop=-20;whiteSpace=wrap;overflow=hidden;rounded=0;" vertex="1" parent="1">
          <mxGeometry x="319" y="40" width="190" height="110" as="geometry" />
        </mxCell>
        <mxCell id="B4gv5yCen6VUPcp5jSni-6" value="Fim" style="strokeWidth=2;html=1;shape=mxgraph.flowchart.start_1;whiteSpace=wrap;" vertex="1" parent="1">
          <mxGeometry x="219.5" y="410" width="70" height="30" as="geometry" />
        </mxCell>
        <mxCell id="B4gv5yCen6VUPcp5jSni-32" style="edgeStyle=orthogonalEdgeStyle;rounded=0;orthogonalLoop=1;jettySize=auto;html=1;exitX=0.5;exitY=1;exitDx=0;exitDy=0;exitPerimeter=0;" edge="1" parent="1" source="B4gv5yCen6VUPcp5jSni-12" target="B4gv5yCen6VUPcp5jSni-6">
          <mxGeometry relative="1" as="geometry" />
        </mxCell>
        <mxCell id="B4gv5yCen6VUPcp5jSni-12" value="&quot;O maior número digitado é %d&quot;, maior" style="strokeWidth=2;html=1;shape=mxgraph.flowchart.display;whiteSpace=wrap;" vertex="1" parent="1">
          <mxGeometry x="189.5" y="290" width="130" height="80" as="geometry" />
        </mxCell>
        <mxCell id="B4gv5yCen6VUPcp5jSni-16" value="&lt;br&gt;n" style="html=1;strokeWidth=2;shape=manualInput;whiteSpace=wrap;rounded=1;size=26;arcSize=11;" vertex="1" parent="1">
          <mxGeometry x="565.5" y="370" width="60" height="40" as="geometry" />
        </mxCell>
        <mxCell id="B4gv5yCen6VUPcp5jSni-17" value="&quot;Digite um número:&quot;" style="strokeWidth=2;html=1;shape=mxgraph.flowchart.display;whiteSpace=wrap;" vertex="1" parent="1">
          <mxGeometry x="552.5" y="305" width="86" height="50" as="geometry" />
        </mxCell>
        <mxCell id="B4gv5yCen6VUPcp5jSni-20" value="i &amp;lt; 10" style="strokeWidth=2;html=1;shape=mxgraph.flowchart.decision;whiteSpace=wrap;" vertex="1" parent="1">
          <mxGeometry x="374.5" y="300" width="80" height="60" as="geometry" />
        </mxCell>
        <mxCell id="B4gv5yCen6VUPcp5jSni-21" style="edgeStyle=orthogonalEdgeStyle;rounded=0;orthogonalLoop=1;jettySize=auto;html=1;exitX=0.5;exitY=1;exitDx=0;exitDy=0;entryX=0.5;entryY=0;entryDx=0;entryDy=0;entryPerimeter=0;" edge="1" parent="1" source="B4gv5yCen6VUPcp5jSni-1" target="B4gv5yCen6VUPcp5jSni-20">
          <mxGeometry relative="1" as="geometry" />
        </mxCell>
        <mxCell id="B4gv5yCen6VUPcp5jSni-22" value="Sim" style="edgeStyle=orthogonalEdgeStyle;rounded=0;orthogonalLoop=1;jettySize=auto;html=1;exitX=1;exitY=0.5;exitDx=0;exitDy=0;exitPerimeter=0;entryX=0;entryY=0.5;entryDx=0;entryDy=0;entryPerimeter=0;" edge="1" parent="1" source="B4gv5yCen6VUPcp5jSni-20" target="B4gv5yCen6VUPcp5jSni-17">
          <mxGeometry relative="1" as="geometry" />
        </mxCell>
        <mxCell id="B4gv5yCen6VUPcp5jSni-28" value="Sim" style="edgeStyle=orthogonalEdgeStyle;rounded=0;orthogonalLoop=1;jettySize=auto;html=1;exitX=0;exitY=0.5;exitDx=0;exitDy=0;exitPerimeter=0;entryX=1;entryY=0.5;entryDx=0;entryDy=0;" edge="1" parent="1" source="B4gv5yCen6VUPcp5jSni-23" target="B4gv5yCen6VUPcp5jSni-27">
          <mxGeometry x="-0.0612" relative="1" as="geometry">
            <mxPoint as="offset" />
          </mxGeometry>
        </mxCell>
        <mxCell id="B4gv5yCen6VUPcp5jSni-23" value="maior &amp;lt; n" style="strokeWidth=2;html=1;shape=mxgraph.flowchart.decision;whiteSpace=wrap;" vertex="1" parent="1">
          <mxGeometry x="555.5" y="430" width="80" height="60" as="geometry" />
        </mxCell>
        <mxCell id="B4gv5yCen6VUPcp5jSni-25" style="edgeStyle=orthogonalEdgeStyle;rounded=0;orthogonalLoop=1;jettySize=auto;html=1;exitX=0.5;exitY=1;exitDx=0;exitDy=0;exitPerimeter=0;entryX=0.502;entryY=0.364;entryDx=0;entryDy=0;entryPerimeter=0;" edge="1" parent="1" source="B4gv5yCen6VUPcp5jSni-17" target="B4gv5yCen6VUPcp5jSni-16">
          <mxGeometry relative="1" as="geometry" />
        </mxCell>
        <mxCell id="B4gv5yCen6VUPcp5jSni-26" style="edgeStyle=orthogonalEdgeStyle;rounded=0;orthogonalLoop=1;jettySize=auto;html=1;exitX=0.5;exitY=1;exitDx=0;exitDy=0;entryX=0.5;entryY=0;entryDx=0;entryDy=0;entryPerimeter=0;" edge="1" parent="1" source="B4gv5yCen6VUPcp5jSni-16" target="B4gv5yCen6VUPcp5jSni-23">
          <mxGeometry relative="1" as="geometry" />
        </mxCell>
        <mxCell id="B4gv5yCen6VUPcp5jSni-27" value="maior = n" style="rounded=1;whiteSpace=wrap;html=1;absoluteArcSize=1;arcSize=14;strokeWidth=2;" vertex="1" parent="1">
          <mxGeometry x="440.5" y="440" width="66" height="40" as="geometry" />
        </mxCell>
        <mxCell id="B4gv5yCen6VUPcp5jSni-29" value="Não" style="edgeStyle=orthogonalEdgeStyle;rounded=0;orthogonalLoop=1;jettySize=auto;html=1;exitX=0.5;exitY=1;exitDx=0;exitDy=0;exitPerimeter=0;entryX=0.5;entryY=1;entryDx=0;entryDy=0;entryPerimeter=0;" edge="1" parent="1" source="B4gv5yCen6VUPcp5jSni-23" target="B4gv5yCen6VUPcp5jSni-20">
          <mxGeometry x="-0.943" relative="1" as="geometry">
            <mxPoint as="offset" />
          </mxGeometry>
        </mxCell>
        <mxCell id="B4gv5yCen6VUPcp5jSni-30" style="edgeStyle=orthogonalEdgeStyle;rounded=0;orthogonalLoop=1;jettySize=auto;html=1;exitX=0;exitY=0.5;exitDx=0;exitDy=0;entryX=0.5;entryY=1;entryDx=0;entryDy=0;entryPerimeter=0;" edge="1" parent="1" source="B4gv5yCen6VUPcp5jSni-27" target="B4gv5yCen6VUPcp5jSni-20">
          <mxGeometry relative="1" as="geometry" />
        </mxCell>
        <mxCell id="B4gv5yCen6VUPcp5jSni-31" value="Não" style="edgeStyle=orthogonalEdgeStyle;rounded=0;orthogonalLoop=1;jettySize=auto;html=1;exitX=0;exitY=0.5;exitDx=0;exitDy=0;exitPerimeter=0;entryX=1;entryY=0.5;entryDx=0;entryDy=0;entryPerimeter=0;" edge="1" parent="1" source="B4gv5yCen6VUPcp5jSni-20" target="B4gv5yCen6VUPcp5jSni-12">
          <mxGeometry relative="1" as="geometry" />
        </mxCell>
      </root>
    </mxGraphModel>
  </diagram>
</mxfile>
